<svg width="86" height="86" viewBox="0 0 86 86" fill="none" xmlns="http://www.w3.org/2000/svg">
<path fill-rule="evenodd" clip-rule="evenodd" d="M43 7.16669C62.7902 7.16669 78.8333 23.2098 78.8333 43C78.8333 62.7902 62.7902 78.8334 43 78.8334C23.2098 78.8334 7.16663 62.7902 7.16663 43C7.16663 23.2098 23.2098 7.16669 43 7.16669ZM43 27C44.4727 27 45.6666 28.1939 45.6666 29.6667V40.3333H56.3333C57.8061 40.3333 59 41.5272 59 43C59 44.4728 57.8061 45.6667 56.3333 45.6667H45.6666V56.3333C45.6666 57.8061 44.4727 59 43 59C41.5272 59 40.3333 57.8061 40.3333 56.3333V45.6667H29.6666C28.1939 45.6667 27 44.4728 27 43C27 41.5272 28.1939 40.3333 29.6666 40.3333H40.3333V29.6667C40.3333 28.1939 41.5272 27 43 27Z" fill="#3770CF"/>
</svg>
