<svg width="16" height="17" viewBox="0 0 16 17" fill="none" xmlns="http://www.w3.org/2000/svg">
<path fill-rule="evenodd" clip-rule="evenodd" d="M8.72582 14.2097L8.77574 14.2803C8.99203 14.5507 9.33237 14.5715 9.56774 14.3427L9.62426 14.2803L13.8243 9.03033L13.8491 8.99736L13.8822 8.94648L13.9252 8.86305L13.9573 8.7785L13.9785 8.69949L13.9959 8.58857L14 8.5L13.9983 8.44357L13.9879 8.34946L13.9702 8.26589L13.9438 8.18258L13.9124 8.10947L13.8682 8.03091L13.8243 7.96967L9.62426 2.71967C9.38995 2.42678 9.01005 2.42678 8.77574 2.71967C8.55945 2.99003 8.54281 3.41546 8.72582 3.70967L8.77574 3.78033L11.9504 7.75L2.6 7.75C2.26863 7.75 2 8.08579 2 8.5C2 8.91421 2.26863 9.25 2.6 9.25H11.9516L8.77574 13.2197C8.55945 13.49 8.54281 13.9155 8.72582 14.2097L8.77574 14.2803L8.72582 14.2097Z" fill="#2563EB"/>
</svg>
