<svg width="86" height="86" viewBox="0 0 86 86" fill="none" xmlns="http://www.w3.org/2000/svg">
<path fill-rule="evenodd" clip-rule="evenodd" d="M43 7.16669C62.7902 7.16669 78.8333 23.2098 78.8333 43C78.8333 62.7902 62.7902 78.8334 43 78.8334C23.2098 78.8334 7.16663 62.7902 7.16663 43C7.16663 23.2098 23.2098 7.16669 43 7.16669ZM44.0667 50.4667C43.5689 51.1304 42.6065 51.1747 42.0468 50.5995L41.9334 50.4667L33.9334 39.8001C33.3041 38.961 33.8469 37.78 34.8532 37.6744L35 37.6667H39V31.0001C39 30.3689 39.4386 29.8401 40.0276 29.7019L40.1779 29.6757L40.3334 29.6667H45.6667C46.3505 29.6667 46.914 30.1814 46.9911 30.8446L47 31.0001V37.6667H51C51.9964 37.6667 52.6049 38.6982 52.2181 39.5459L52.1487 39.678L52.0667 39.8001L44.0667 50.4667ZM31 56.3334C30.2636 56.3334 29.6667 55.7364 29.6667 55.0001C29.6667 54.2637 30.2636 53.6667 31 53.6667H55C55.7364 53.6667 56.3333 54.2637 56.3333 55.0001C56.3333 55.7364 55.7364 56.3334 55 56.3334H31Z" fill="#2DBA4C"/>
</svg>
